HIERARCHY
ROOT Hips
{
  OFFSET 56.2289 96.6351 -0.591768
  CHANNELS 6 Xposition Yposition Zposition Zrotation Xrotation Yrotation
  JOINT spine
  {
    OFFSET 0 7.96568 0.458067
    CHANNELS 3 Zrotation Xrotation Yrotation
    JOINT spine1
    {
      OFFSET 0 10.2431 0
      CHANNELS 3 Zrotation Xrotation Yrotation
      JOINT spine2
      {
        OFFSET 0 9.81475 0
        CHANNELS 3 Zrotation Xrotation Yrotation
        JOINT Neck
        {
          OFFSET 0 25.1986 1.20138
          CHANNELS 3 Zrotation Xrotation Yrotation
          JOINT Head
          {
            OFFSET 0 7.61315 0
            CHANNELS 3 Zrotation Xrotation Yrotation
            End Site
            {
              OFFSET 0 18.4281 -6.07733
            }
          }
        }
        JOINT RightShoulder
        {
          OFFSET -4.1327 10.5992 -0.575451
          CHANNELS 3 Zrotation Xrotation Yrotation
          JOINT RightArm
          {
            OFFSET 0 13.9018 0
            CHANNELS 3 Zrotation Xrotation Yrotation
            JOINT RightArmRoll
            {
              OFFSET 0 7.01788 0
              CHANNELS 3 Zrotation Xrotation Yrotation
              JOINT RightForeArm
              {
                OFFSET 0 20.4406 0
                CHANNELS 3 Zrotation Xrotation Yrotation
                JOINT RightForeArmRoll
                {
                  OFFSET 0 7.87515 0
                  CHANNELS 3 Zrotation Xrotation Yrotation
                  JOINT RightHand
                  {
                    OFFSET 0 15.8037 0
                    CHANNELS 3 Zrotation Xrotation Yrotation
                    End Site
                    {
                      OFFSET 0 0 0
                    }
                  }
                }
              }
            }
          }
        }
        JOINT LeftShoulder
        {
          OFFSET 4.1327 10.5992 -0.575451
          CHANNELS 3 Zrotation Xrotation Yrotation
          JOINT LeftArm
          {
            OFFSET 0 13.9018 0
            CHANNELS 3 Zrotation Xrotation Yrotation
            JOINT LeftArmRoll
            {
              OFFSET 0 7.01788 0
              CHANNELS 3 Zrotation Xrotation Yrotation
              JOINT LeftForeArm
              {
                OFFSET 0 20.4406 0
                CHANNELS 3 Zrotation Xrotation Yrotation
                JOINT LeftForeArmRoll
                {
                  OFFSET 0 7.87515 0
                  CHANNELS 3 Zrotation Xrotation Yrotation
                  JOINT LeftHand
                  {
                    OFFSET 0 15.8037 0
                    CHANNELS 3 Zrotation Xrotation Yrotation
                    End Site
                    {
                      OFFSET 0 0 0
                    }
                  }
                }
              }
            }
          }
        }
      }
    }
  }
  JOINT RightUpLeg
  {
    OFFSET -7.06048 -1.2947 -1.0861
    CHANNELS 3 Zrotation Xrotation Yrotation
    JOINT RightUpLegRoll
    {
      OFFSET 0 18.5308 0
      CHANNELS 3 Zrotation Xrotation Yrotation
      JOINT RightLeg
      {
        OFFSET 0 -22.9476 0
        CHANNELS 3 Zrotation Xrotation Yrotation
        JOINT RightLegRoll
        {
          OFFSET 0 23.0226 0
          CHANNELS 3 Zrotation Xrotation Yrotation
          JOINT RightFoot
          {
            OFFSET 0 19.1625 0
            CHANNELS 3 Zrotation Xrotation Yrotation
            JOINT RightToeBase
            {
              OFFSET 0 16.0188 0
              CHANNELS 3 Zrotation Xrotation Yrotation
              End Site
              {
                OFFSET 0.00678979 7.75782 -0.894206
              }
            }
          }
        }
      }
    }
  }
  JOINT LeftUpLeg
  {
    OFFSET 7.06048 -1.2947 -1.0861
    CHANNELS 3 Zrotation Xrotation Yrotation
    JOINT LeftUpLegRoll
    {
      OFFSET 0 18.5309 0
      CHANNELS 3 Zrotation Xrotation Yrotation
      JOINT LeftLeg
      {
        OFFSET 0 22.9475 0
        CHANNELS 3 Zrotation Xrotation Yrotation
        JOINT LeftLegRoll
        {
          OFFSET 0 23.2355 0
          CHANNELS 3 Zrotation Xrotation Yrotation
          JOINT LeftFoot
          {
            OFFSET 0 18.9496 0
            CHANNELS 3 Zrotation Xrotation Yrotation
            JOINT LeftToeBase
            {
              OFFSET 0 16.0188 0
              CHANNELS 3 Zrotation Xrotation Yrotation
              End Site
              {
                OFFSET -0.0304289 7.75782 -0.894207
              }
            }
          }
        }
      }
    }
  }
}
MOTION
Frames: 10
Frame Time: 0.00208333
55.2772 96.8061 -0.447651 1.02437 -6.39878 5.58631 -0.166093 -0.774673 -0.285027 -0.330153 2.45428 -0.566895 -0.32379 4.09931 -0.561746 -4.97843 5.38715 -0.614227 9.06895 18.6771 -2.25294 69.262 -3.63285 -3.05565 111.02 30.6419 -40.9938 1.27222e-014 3.18055e-015 9.54166e-015 -176.712 80.0277 166.413 8.98823e-007 -3.38622e-006 -3.00504 8.02927 -4.95142 0.697652 -60.7963 -5.28377 3.39323 -112.873 29.5933 47.7233 -1.48547e-005 -1.56639e-006 -6.26008e-007 -178.077 80.7311 -171.234 -2.91419e-006 1.32621e-007 3 -8.02889 -4.95142 -0.697703 178.428 -4.07361 3.15948 180 7.01523e-015 178.823 177.62 6.86297 179.726 4.15996e-007 -3.04926e-006 0.104834 -19.2882 68.6898 20.1294 8.13649 25.2327 -3.48774 -177.069 -4.09178 -0.287102 4.5067e-006 -1.99009e-005 -1.19959 -1.52446 -8.13674 0.124378 -4.1201e-007 -1.61971e-006 -0.14055 19.3844 68.8421 -20.2508 -8.13649 25.2327 3.48773 
55.2901 96.8072 -0.441723 1.02285 -6.39998 5.58421 -0.165396 -0.774053 -0.284918 -0.328672 2.45552 -0.567775 -0.322321 4.10054 -0.562645 -4.95778 5.38399 -0.610566 9.03033 18.7029 -2.24456 69.2802 -3.63999 -3.06056 110.939 30.5686 -40.7664 1.90833e-014 1.27222e-014 2.22639e-014 -176.609 79.9451 166.285 8.98823e-007 -3.38622e-006 -3.00504 8.02927 -4.95142 0.697652 -60.8248 -5.28964 3.39852 -112.796 29.5482 47.4008 -1.48547e-005 -1.56639e-006 -6.26008e-007 -178.081 80.7099 -171.254 -2.91419e-006 1.32621e-007 3 -8.02889 -4.95142 -0.697703 178.433 -4.09268 3.15909 180 7.01523e-015 178.823 177.617 6.82678 179.727 4.15996e-007 -3.04926e-006 0.103701 -19.2688 68.6681 20.109 8.13649 25.2327 -3.48774 -177.064 -4.12219 -0.297452 4.5067e-006 -1.99009e-005 -1.19958 -1.53443 -8.08643 0.122913 -4.1201e-007 -1.61971e-006 -0.13817 19.3562 68.811 -20.2213 -8.13649 25.2327 3.48773 
55.2842 96.8423 -0.460344 1.02134 -6.4009 5.58166 -0.16468 -0.773698 -0.28483 -0.327206 2.45622 -0.568524 -0.32086 4.10125 -0.563415 -4.94166 5.38763 -0.606594 8.99918 18.7195 -2.23679 69.2973 -3.64612 -3.0649 110.862 30.4946 -40.5233 -3.53113e-031 -6.36111e-015 -3.18055e-015 -176.521 79.8671 166.177 8.98823e-007 -3.38622e-006 -3.00504 8.02927 -4.95142 0.697652 -60.8497 -5.29191 3.40143 -112.724 29.4983 47.0635 -1.48547e-005 -1.56639e-006 -6.26008e-007 -178.099 80.6826 -171.259 -2.91419e-006 1.32621e-007 3 -8.02889 -4.95142 -0.697703 178.437 -4.10833 3.15826 180 7.01523e-015 178.823 177.615 6.79694 179.727 4.15996e-007 -3.04926e-006 0.102797 -19.2523 68.6497 20.0918 8.13649 25.2327 -3.48774 -177.06 -4.14687 -0.3057 4.5067e-006 -1.99009e-005 -1.19958 -1.54226 -8.04626 0.121689 -4.1201e-007 -1.61971e-006 -0.136299 19.3343 68.7867 -20.1984 -8.13649 25.2327 3.48773 
55.2767 96.8415 -0.456991 1.01984 -6.40154 5.57865 -0.163945 -0.773651 -0.284761 -0.325761 2.45631 -0.569105 -0.319413 4.10134 -0.564019 -4.93074 5.39907 -0.602296 8.97668 18.726 -2.22978 69.3134 -3.65109 -3.06858 110.791 30.4196 -40.2631 -6.36111e-015 -9.54166e-015 -1.27222e-014 -176.449 79.7941 166.09 8.98823e-007 -3.38622e-006 -3.00504 8.02927 -4.95142 0.697652 -60.8706 -5.2899 3.40153 -112.656 29.4429 46.711 -1.48547e-005 -1.56639e-006 -6.26008e-007 -178.135 80.6485 -171.245 -2.91419e-006 1.32621e-007 3 -8.02889 -4.95142 -0.697703 178.442 -4.12005 3.15694 180 7.01523e-015 178.823 177.614 6.77443 179.727 4.15996e-007 -3.04926e-006 0.102156 -19.2392 68.635 20.078 8.13649 25.2327 -3.48774 -177.057 -4.16476 -0.311499 4.5067e-006 -1.99009e-005 -1.19957 -1.54761 -8.01811 0.120753 -4.1201e-007 -1.61971e-006 -0.135028 19.3197 68.7706 -20.1832 -8.13649 25.2327 3.48773 
55.2786 96.8093 -0.440552 1.01837 -6.40195 5.57502 -0.163174 -0.773859 -0.284712 -0.324317 2.4559 -0.569555 -0.317961 4.10092 -0.564493 -4.9249 5.41872 -0.597516 8.96227 18.7209 -2.22321 69.3283 -3.65496 -3.07162 110.726 30.3418 -39.9861 -3.53113e-031 -3.18055e-015 -6.36111e-015 -176.391 79.7262 166.024 8.98823e-007 -3.38622e-006 -3.00504 8.02927 -4.95142 0.697652 -60.8874 -5.28308 3.3985 -112.593 29.379 46.3377 -1.48547e-005 -1.56639e-006 -6.26008e-007 -178.189 80.6069 -171.212 -2.91419e-006 1.32621e-007 3 -8.02889 -4.95142 -0.697703 178.446 -4.12741 3.15506 180 7.01523e-015 178.823 177.614 6.7601 179.727 4.15996e-007 -3.04926e-006 0.101821 -19.2296 68.6242 20.0679 8.13649 25.2327 -3.48774 -177.055 -4.1766 -0.314887 4.5067e-006 -1.99009e-005 -1.19956 -1.55055 -8.00087 0.120062 -4.1201e-007 -1.61971e-006 -0.13432 19.3121 68.7621 -20.1754 -8.13649 25.2327 3.48773 
55.2848 96.824 -0.442384 1.01694 -6.40217 5.57068 -0.162359 -0.774235 -0.284691 -0.32285 2.45514 -0.569942 -0.316484 4.10017 -0.564906 -4.92334 5.44574 -0.592155 8.95417 18.7046 -2.21667 69.3423 -3.65798 -3.07416 110.669 30.26 -39.6947 -3.18055e-015 6.36111e-015 3.18055e-015 -176.344 79.6625 165.974 8.98823e-007 -3.38622e-006 -3.00504 8.02927 -4.95142 0.697652 -60.9011 -5.27188 3.39267 -112.536 29.3048 45.9403 -1.48547e-005 -1.56639e-006 -6.26008e-007 -178.259 80.5581 -171.162 -2.91419e-006 1.32621e-007 3 -8.02889 -4.95142 -0.697703 178.45 -4.13069 3.15262 180 7.01523e-015 178.823 177.615 6.75328 179.727 4.15996e-007 -3.04926e-006 0.101781 -19.2231 68.6168 20.061 8.13649 25.2327 -3.48774 -177.054 -4.18414 -0.316293 4.5067e-006 -1.99009e-005 -1.19955 -1.55159 -7.99151 0.119528 -4.1201e-007 -1.61971e-006 -0.13404 19.31 68.7597 -20.1733 -8.13649 25.2327 3.48773 
55.2917 96.8062 -0.428167 1.01554 -6.4022 5.56569 -0.161506 -0.77477 -0.284698 -0.321363 2.45407 -0.570278 -0.314985 4.0991 -0.56527 -4.9256 5.47922 -0.586286 8.95173 18.6782 -2.21017 69.3555 -3.66024 -3.07627 110.618 30.1745 -39.3901 -9.54166e-015 -9.54166e-015 -6.36111e-015 -176.308 79.6025 165.938 8.98823e-007 -3.38622e-006 -3.00504 8.02927 -4.95142 0.697652 -60.9118 -5.257 3.38447 -112.484 29.221 45.5216 -1.48547e-005 -1.56639e-006 -6.26008e-007 -178.342 80.5031 -171.098 -2.91419e-006 1.32621e-007 3 -8.02889 -4.95142 -0.697703 178.454 -4.13043 3.14971 180 7.01523e-015 178.823 177.616 6.75293 179.726 4.15996e-007 -3.04926e-006 0.101994 -19.2192 68.6124 20.0569 8.13649 25.2327 -3.48774 -177.054 -4.18784 -0.315958 4.5067e-006 -1.99009e-005 -1.19955 -1.55094 -7.98911 0.119134 -4.1201e-007 -1.61971e-006 -0.134137 19.3126 68.7626 -20.1763 -8.13649 25.2327 3.48773 
55.2941 96.8102 -0.429502 1.01416 -6.40202 5.56014 -0.160622 -0.775455 -0.284735 -0.319858 2.4527 -0.570576 -0.313468 4.09773 -0.565597 -4.93125 5.51828 -0.579982 8.95432 18.643 -2.20373 69.3681 -3.66185 -3.078 110.574 30.0859 -39.0734 6.36111e-015 -3.18055e-015 1.27222e-014 -176.28 79.546 165.916 8.98823e-007 -3.38622e-006 -3.00504 8.02927 -4.95142 0.697652 -60.9199 -5.23917 3.37435 -112.437 29.1285 45.0845 -1.48547e-005 -1.56639e-006 -6.26008e-007 -178.436 80.4428 -171.022 -2.91419e-006 1.32621e-007 3 -8.02889 -4.95142 -0.697703 178.458 -4.12719 3.14637 180 7.01523e-015 178.823 177.618 6.75795 179.725 4.15996e-007 -3.04926e-006 0.102417 -19.2175 68.6104 20.0551 8.13649 25.2327 -3.48774 -177.055 -4.18818 -0.314119 4.5067e-006 -1.99009e-005 -1.19954 -1.54884 -7.99273 0.118864 -4.1201e-007 -1.61971e-006 -0.134561 19.3194 68.7701 -20.1837 -8.13649 25.2327 3.48773 
55.2917 96.8024 -0.440175 1.01279 -6.40163 5.55409 -0.159714 -0.776278 -0.284805 -0.31834 2.45105 -0.570847 -0.311935 4.09608 -0.565898 -4.93985 5.56201 -0.573316 8.96129 18.6002 -2.19736 69.38 -3.6629 -3.07941 110.535 29.9946 -38.7458 -1.76556e-031 3.18055e-015 3.18055e-015 -176.261 79.4924 165.906 8.98823e-007 -3.38622e-006 -3.00504 8.02927 -4.95142 0.697652 -60.9257 -5.21908 3.36275 -112.395 29.0283 44.6319 -1.48547e-005 -1.56639e-006 -6.26008e-007 -178.539 80.378 -170.938 -2.91419e-006 1.32621e-007 3 -8.02889 -4.95142 -0.697703 178.462 -4.1215 3.14268 180 7.01523e-015 178.823 177.621 6.76729 179.725 4.15996e-007 -3.04926e-006 0.103008 -19.2176 68.6105 20.0551 8.13649 25.2327 -3.48774 -177.056 -4.18565 -0.311017 4.5067e-006 -1.99009e-005 -1.19953 -1.54554 -8.00144 0.118701 -4.1201e-007 -1.61971e-006 -0.135259 19.3296 68.7815 -20.1947 -8.13649 25.2327 3.48773 
55.295 96.801 -0.433302 1.01142 -6.40101 5.54762 -0.158789 -0.777231 -0.284908 -0.31681 2.44914 -0.571104 -0.31039 4.09417 -0.566186 -4.95096 5.60952 -0.566361 8.972 18.5513 -2.19107 69.3914 -3.6635 -3.08055 110.502 29.9011 -38.4082 1.59028e-014 9.54166e-015 9.54166e-015 -176.25 79.4413 165.907 8.98823e-007 -3.38622e-006 -3.00504 8.02927 -4.95142 0.697652 -60.9295 -5.19747 3.35012 -112.359 28.9214 44.1664 -1.48547e-005 -1.56639e-006 -6.26008e-007 -178.649 80.3096 -170.847 -2.91419e-006 1.32621e-007 3 -8.02889 -4.95142 -0.697703 178.467 -4.11392 3.1387 180 7.01523e-015 178.823 177.624 6.77986 179.724 4.15996e-007 -3.04926e-006 0.103724 -19.219 68.612 20.0565 8.13649 25.2327 -3.48774 -177.058 -4.18072 -0.306892 4.5067e-006 -1.99009e-005 -1.19952 -1.54125 -8.0143 0.118626 -4.1201e-007 -1.61971e-006 -0.136181 19.3427 68.796 -20.2087 -8.13649 25.2327 3.48773 
